<svg width="28" height="29" viewBox="0 0 28 29" fill="none" xmlns="http://www.w3.org/2000/svg">
<path d="M23.75 27.2357C24.8269 27.2357 25.7 26.3745 25.7 25.3123C25.7 24.2501 24.8269 23.3889 23.75 23.3889C22.6731 23.3889 21.8 24.2501 21.8 25.3123C21.8 26.3745 22.6731 27.2357 23.75 27.2357Z" stroke="white" stroke-width="2" stroke-linecap="round" stroke-linejoin="round"/>
<path d="M10.75 27.2357C11.8269 27.2357 12.7 26.3745 12.7 25.3123C12.7 24.2501 11.8269 23.3889 10.75 23.3889C9.67303 23.3889 8.79999 24.2501 8.79999 25.3123C8.79999 26.3745 9.67303 27.2357 10.75 27.2357Z" stroke="white" stroke-width="2" stroke-linecap="round" stroke-linejoin="round"/>
<path d="M4.9 4.1551H27L24.4 18.26H7.5L4.9 4.1551ZM4.9 4.1551C4.68333 3.30025 3.6 1.59058 1 1.59058" stroke="white" stroke-width="2" stroke-linecap="round" stroke-linejoin="round"/>
<path d="M24.4 18.26H7.49999H5.19999C2.88039 18.26 1.64999 19.2617 1.64999 20.8245C1.64999 22.3873 2.88039 23.3891 5.19999 23.3891H23.75" stroke="white" stroke-width="2" stroke-linecap="round" stroke-linejoin="round"/>
</svg>
