<svg width="32" height="32" viewBox="0 0 32 32" fill="none" xmlns="http://www.w3.org/2000/svg">
<g clip-path="url(#clip0_1_3762)">
<path d="M15.9992 31.9984C24.8353 31.9984 31.9984 24.8353 31.9984 15.9992C31.9984 7.16309 24.8353 0 15.9992 0C7.16309 0 0 7.16309 0 15.9992C0 24.8353 7.16309 31.9984 15.9992 31.9984Z" fill="white"/>
<path d="M20.0331 17.2149C20.7048 17.2149 21.2678 16.943 21.6613 16.4296C22.0867 15.8746 22.3107 15.0428 22.3107 14.024C22.3107 11.0762 21.311 9.78868 18.1953 8.72026C17.2084 8.38597 14.9884 7.69661 13.3202 7.35913V23.5551L16.6119 24.5995V10.9531C16.6119 10.1086 17.0853 9.58555 17.6883 9.78548C18.5904 10.035 18.5904 11.057 18.5904 11.4425V16.871C19.1022 17.0981 19.5868 17.2149 20.0331 17.2149Z" fill="#1C1F2A"/>
<path d="M27.1793 20.5897C27.3216 20.4105 27.3664 20.225 27.3104 20.0411C27.2416 19.8155 26.9473 19.3805 25.767 19.0062C24.2987 18.4496 22.285 18.2161 20.636 18.3936C19.0445 18.5696 17.8913 18.9726 17.8785 18.9774L17.8065 19.0014V20.7544L21.5252 19.4445C22.2386 19.1886 23.3422 19.131 23.9388 19.3261C24.3675 19.4669 24.4602 19.6924 24.4618 19.8571C24.4634 20.0539 24.3355 20.3338 23.7101 20.5577L17.8065 22.6625V24.334L25.7238 21.4917C25.7334 21.4885 26.7746 21.0999 27.1793 20.5897Z" fill="#1C1F2A"/>
<path d="M12.1093 17.4819L7.02313 19.2893C7.00553 19.2957 5.73878 19.7164 5.00783 20.257C4.74872 20.4489 4.63196 20.6856 4.67515 20.9239C4.75672 21.3686 5.33892 21.7828 6.2298 22.0339C8.09315 22.6497 10.0477 22.8065 11.9366 22.4962L12.1077 22.4674V21.0535L10.5643 21.6133C9.85094 21.8692 8.74572 21.9268 8.14913 21.7316C7.72048 21.5909 7.62771 21.3654 7.62612 21.2006C7.62292 21.0039 7.75247 20.724 8.37945 20.4985L12.1093 19.1629V17.4819Z" fill="#1C1F2A"/>
</g>
<defs>
<clipPath id="clip0_1_3762">
<rect width="32" height="31.9984" fill="white"/>
</clipPath>
</defs>
</svg>
