<svg width="64" height="63" viewBox="0 0 64 63" fill="none" xmlns="http://www.w3.org/2000/svg">
<path fill-rule="evenodd" clip-rule="evenodd" d="M62.4793 31.5C62.4793 48.3447 48.824 62 31.9793 62C24.7055 62 18.0263 59.4537 12.7846 55.2039L11.3812 55.3327C16.9038 60.11 24.1041 63 31.9793 63C49.3763 63 63.4793 48.897 63.4793 31.5C63.4793 14.103 49.3763 0 31.9793 0C14.5823 0 0.479309 14.103 0.479309 31.5C0.479309 33.388 0.645409 35.2372 0.963794 37.0338L1.28313 36.6499L2.02353 37.2658C1.66631 35.3987 1.47931 33.4712 1.47931 31.5C1.47931 14.6553 15.1346 1 31.9793 1C48.824 1 62.4793 14.6553 62.4793 31.5Z" fill="url(#paint0_linear_1_1584)"/>
<defs>
<linearGradient id="paint0_linear_1_1584" x1="6.52041" y1="4.74657" x2="63.4793" y2="26.7065" gradientUnits="userSpaceOnUse">
<stop/>
<stop offset="1" stop-color="#0A0101" stop-opacity="0.21"/>
</linearGradient>
</defs>
</svg>
