<svg width="54" height="58" viewBox="0 0 54 58" fill="none" xmlns="http://www.w3.org/2000/svg">
<path d="M48.6196 0H4.60063C3.43317 0 2.31353 0.481131 1.48802 1.33755C0.662501 2.19397 0.19873 3.35553 0.19873 4.56669V21.3435C0.19873 46.9198 21.0582 55.4053 25.2345 56.8467C26.1265 57.1614 27.0937 57.1614 27.9857 56.8467C32.1675 55.4053 53.0215 46.9198 53.0215 21.3435V4.56669C53.0215 3.35553 52.5578 2.19397 51.7322 1.33755C50.9067 0.481131 49.7871 0 48.6196 0ZM48.6196 21.3464C48.6196 43.7289 30.3655 51.2068 26.6101 52.5083C22.8878 51.2211 4.60063 43.7489 4.60063 21.3464V4.56669H48.6196V21.3464ZM14.0482 29.0156C13.6352 28.5871 13.4032 28.006 13.4032 27.4001C13.4032 26.7942 13.6352 26.2131 14.0482 25.7847C14.4612 25.3562 15.0213 25.1155 15.6054 25.1155C16.1894 25.1155 16.7496 25.3562 17.1626 25.7847L22.2082 31.0192L36.0577 16.6513C36.2622 16.4391 36.505 16.2708 36.7721 16.156C37.0393 16.0412 37.3257 15.9821 37.6149 15.9821C37.9041 15.9821 38.1904 16.0412 38.4576 16.156C38.7248 16.2708 38.9676 16.4391 39.172 16.6513C39.3765 16.8634 39.5387 17.1153 39.6494 17.3925C39.7601 17.6696 39.8171 17.9667 39.8171 18.2667C39.8171 18.5668 39.7601 18.8638 39.6494 19.141C39.5387 19.4182 39.3765 19.6701 39.172 19.8822L23.7654 35.8656C23.561 36.0779 23.3183 36.2463 23.0511 36.3612C22.7839 36.4761 22.4975 36.5353 22.2082 36.5353C21.919 36.5353 21.6326 36.4761 21.3654 36.3612C21.0982 36.2463 20.8555 36.0779 20.6511 35.8656L14.0482 29.0156Z" fill="url(#paint0_linear_7_256)"/>
<defs>
<linearGradient id="paint0_linear_7_256" x1="26.6101" y1="-6.6108e-07" x2="74.2084" y2="141.838" gradientUnits="userSpaceOnUse">
<stop stop-color="#C6922B"/>
<stop offset="1" stop-opacity="0"/>
</linearGradient>
</defs>
</svg>
